<?xml version="1.0" encoding="iso-8859-1"?>
<!-- Generator: Adobe Illustrator 19.0.0, SVG Export Plug-In . SVG Version: 6.00 Build 0)  -->
<svg version="1.1" id="Capa_1" xmlns="http://www.w3.org/2000/svg" xmlns:xlink="http://www.w3.org/1999/xlink" x="0px" y="0px"
	 viewBox="0 0 512 512" style="enable-background:new 0 0 512 512;" xml:space="preserve">
<circle style="fill:#FF6838;" cx="256" cy="256" r="256"/>
<path style="fill:#AE4E32;" d="M512,256c0-7.124-0.305-14.176-0.876-21.152L407.667,131.39L92.402,293.6l67.925,67.925
	l-32.161,49.365l99.547,99.547C237.004,511.458,246.438,512,256,512C397.385,512,512,397.385,512,256z"/>
<path style="fill:#FFFFFF;" d="M452,256c0,0-87.752,122.309-196,122.309S60,256,60,256s87.752-122.309,196-122.309S452,256,452,256z
	"/>
<path style="fill:#E0E0E0;" d="M256,133.691c-0.111,0-0.222,0.006-0.333,0.006v244.607c0.111,0,0.222,0.006,0.333,0.006
	C364.248,378.309,452,256,452,256S364.248,133.691,256,133.691z"/>
<circle style="fill:#00BAFF;" cx="256" cy="256" r="101.15"/>
<path style="fill:#008CC3;" d="M256,154.852c-0.111,0-0.222,0.004-0.333,0.004v202.287c0.111,0,0.222,0.004,0.333,0.004
	c55.862,0,101.148-45.285,101.148-101.147S311.862,154.852,256,154.852z"/>
<circle style="fill:#333333;" cx="256" cy="256" r="40.17"/>
<path style="fill:#1A1A1A;" d="M256,215.833c-0.112,0-0.222,0.008-0.333,0.008v80.316c0.112,0.001,0.221,0.008,0.333,0.008
	c22.183,0,40.167-17.983,40.167-40.167C296.167,233.816,278.183,215.833,256,215.833z"/>
<rect x="239.752" y="61.834" transform="matrix(-0.7071 -0.7071 0.7071 -0.7071 253.9782 624.1353)" style="fill:#005C83;" width="33" height="395.266"/>
<polygon style="fill:#00263F;" points="384.333,108.056 255.667,236.722 255.667,283.391 407.667,131.39 "/>
<g>
</g>
<g>
</g>
<g>
</g>
<g>
</g>
<g>
</g>
<g>
</g>
<g>
</g>
<g>
</g>
<g>
</g>
<g>
</g>
<g>
</g>
<g>
</g>
<g>
</g>
<g>
</g>
<g>
</g>
</svg>
