<svg id="Flat" height="512" viewBox="0 0 512 512" width="512" xmlns="http://www.w3.org/2000/svg"><path d="m280 248-152 240-16-56-56 8 152-240z" fill="#eacf4d"/><path d="m232 248 152 240 16-56 56 8-152-240z" fill="#eacf4d"/><path d="m148.733 300h86.533v16h-86.533z" fill="#e8be31" transform="matrix(.555 -.832 .832 .555 -170.774 296.906)"/><path d="m312 264.733h16v86.533h-16z" fill="#e8be31" transform="matrix(.832 -.555 .555 .832 -117.104 229.233)"/><path d="m472 248h-432l40-40-40-40h432l-40 40z" fill="#eacf4d"/><circle cx="256" cy="168" fill="#c7161f" r="144"/><circle cx="256" cy="168" fill="#eb352f" r="104"/><path d="m112 128h288v80h-288z" fill="#f2e368"/><g fill="#808080"><path d="m152 160h32v16h-32z"/><path d="m200 160h16v16h-16z"/><path d="m232 160h16v16h-16z"/><path d="m264 160h48v16h-48z"/><path d="m328 160h32v16h-32z"/></g></svg>